<?xml version="1.0" encoding="UTF-8"?>
<!DOCTYPE svg PUBLIC "-//W3C//DTD SVG 1.1//EN" "http://www.w3.org/Graphics/SVG/1.1/DTD/svg11.dtd">
<svg xmlns="http://www.w3.org/2000/svg" version="1.1" class="ionicon" viewBox="0 0 100 100" style="shape-rendering:geometricPrecision; text-rendering:geometricPrecision; image-rendering:optimizeQuality; fill-rule:evenodd; clip-rule:evenodd" xmlns:xlink="http://www.w3.org/1999/xlink">
<g><path style="opacity:0.991" fill="#61dbfb" d="M 35.5,3.5 C 48.1711,3.33345 60.8377,3.50012 73.5,4C 81.3333,11.8333 89.1667,19.6667 97,27.5C 97.49,28.7932 97.6567,30.1266 97.5,31.5C 96.1667,31.5 94.8333,31.5 93.5,31.5C 93.5,40.1667 93.5,48.8333 93.5,57.5C 92.1667,57.5 90.8333,57.5 89.5,57.5C 89.5,48.8333 89.5,40.1667 89.5,31.5C 78.8281,31.6665 68.1615,31.4998 57.5,31C 50.3333,23.1667 43.1667,15.3333 36,7.5C 35.51,6.20677 35.3433,4.87344 35.5,3.5 Z"/></g>
<g><path style="opacity:0.98" fill="#61dbfb" d="M 39.5,16.5 C 45.6581,22.1579 51.6581,27.9913 57.5,34C 66.0836,35.4099 74.7502,35.9099 83.5,35.5C 83.5,38.8333 83.5,42.1667 83.5,45.5C 72.8281,45.6665 62.1615,45.4998 51.5,45C 46.3333,39.1667 41.1667,33.3333 36,27.5C 35.3333,25.8333 35.3333,24.1667 36,22.5C 37.4424,20.6089 38.6091,18.6089 39.5,16.5 Z"/></g>
<g><path style="opacity:0.992" fill="#61dbfb" d="M 9.5,25.5 C 17.1667,25.5 24.8333,25.5 32.5,25.5C 32.33,26.8221 32.6634,27.9887 33.5,29C 26.8333,29.3333 20.1667,29.6667 13.5,30C 13,30.5 12.5,31 12,31.5C 11.5001,44.8292 11.3334,58.1625 11.5,71.5C 34.1667,71.5 56.8333,71.5 79.5,71.5C 79.5,64.1667 79.5,56.8333 79.5,49.5C 80.8333,49.5 82.1667,49.5 83.5,49.5C 83.6665,60.1719 83.4998,70.8385 83,81.5C 82.5,82 82,82.5 81.5,83C 57.5,83.6667 33.5,83.6667 9.5,83C 9,82.5 8.5,82 8,81.5C 7.33333,63.5 7.33333,45.5 8,27.5C 8.71719,26.9558 9.21719,26.2891 9.5,25.5 Z M 44.5,76.5 C 46.337,76.6395 46.6704,77.3061 45.5,78.5C 44.7025,78.0431 44.3691,77.3764 44.5,76.5 Z"/></g>
<g><path style="opacity:0.9" fill="#61dafa" d="M 88.5,61.5 C 94.6739,60.1729 96.8406,62.5062 95,68.5C 92.6667,75.1667 90.3333,75.1667 88,68.5C 87.2967,66.0709 87.4634,63.7375 88.5,61.5 Z"/></g>
<g><path style="opacity:0.975" fill="#61dafa" d="M 36.5,87.5 C 42.5092,87.3338 48.5092,87.5005 54.5,88C 56.1002,89.815 58.1002,90.9817 60.5,91.5C 61.4287,92.6888 61.762,94.0222 61.5,95.5C 50.8333,95.5 40.1667,95.5 29.5,95.5C 29.238,94.0222 29.5713,92.6888 30.5,91.5C 33.1812,91.0676 35.1812,89.7343 36.5,87.5 Z"/></g>
</svg>
