<?xml version="1.0" encoding="UTF-8"?>
<!DOCTYPE svg PUBLIC "-//W3C//DTD SVG 1.1//EN" "http://www.w3.org/Graphics/SVG/1.1/DTD/svg11.dtd">
<svg xmlns="http://www.w3.org/2000/svg" version="1.1" class="ionicon" viewBox="0 0 100 100" style="shape-rendering:geometricPrecision; text-rendering:geometricPrecision; image-rendering:optimizeQuality; fill-rule:evenodd; clip-rule:evenodd" xmlns:xlink="http://www.w3.org/1999/xlink">
<g><path style="opacity:0.968" fill="#61dbfb" d="M 35.5,3.5 C 48.1711,3.33345 60.8377,3.50012 73.5,4C 81.3333,11.8333 89.1667,19.6667 97,27.5C 97.49,28.7932 97.6567,30.1266 97.5,31.5C 96.1667,31.5 94.8333,31.5 93.5,31.5C 93.5,40.1667 93.5,48.8333 93.5,57.5C 92.1667,57.5 90.8333,57.5 89.5,57.5C 89.5,48.8333 89.5,40.1667 89.5,31.5C 87.5,31.5 85.5,31.5 83.5,31.5C 83.5,36.1667 83.5,40.8333 83.5,45.5C 72.8281,45.6665 62.1615,45.4998 51.5,45C 46.3333,39.1667 41.1667,33.3333 36,27.5C 35.3333,25.8333 35.3333,24.1667 36,22.5C 38.0285,19.9708 39.8619,17.3041 41.5,14.5C 40.1491,11.8037 38.3157,9.47038 36,7.5C 35.51,6.20677 35.3433,4.87344 35.5,3.5 Z M 43.5,8.5 C 52.3238,7.34269 61.3238,7.17602 70.5,8C 76.8333,14.3333 83.1667,20.6667 89.5,27C 80.1667,27.6667 70.8333,27.6667 61.5,27C 55.2698,20.9381 49.2698,14.7714 43.5,8.5 Z M 44.5,18.5 C 49.6035,21.7682 53.9368,25.9349 57.5,31C 64.8258,31.4997 72.1591,31.6663 79.5,31.5C 79.5,34.8333 79.5,38.1667 79.5,41.5C 71.16,41.6664 62.8267,41.4997 54.5,41C 49.8333,35.6667 45.1667,30.3333 40.5,25C 42.2318,23.0281 43.5652,20.8614 44.5,18.5 Z"/></g>
<g><path style="opacity:0.99" fill="#61dbfb" d="M 9.5,25.5 C 17.1667,25.5 24.8333,25.5 32.5,25.5C 32.33,26.8221 32.6634,27.9887 33.5,29C 26.8333,29.3333 20.1667,29.6667 13.5,30C 13,30.5 12.5,31 12,31.5C 11.5001,44.1623 11.3334,56.8289 11.5,69.5C 34.1667,69.5 56.8333,69.5 79.5,69.5C 79.5,62.8333 79.5,56.1667 79.5,49.5C 80.8333,49.5 82.1667,49.5 83.5,49.5C 83.6665,60.8382 83.4999,72.1716 83,83.5C 82.5,84 82,84.5 81.5,85C 72.5062,85.4998 63.5062,85.6664 54.5,85.5C 54.775,89.1087 56.775,91.1087 60.5,91.5C 61.4287,92.6888 61.762,94.0222 61.5,95.5C 50.8333,95.5 40.1667,95.5 29.5,95.5C 29.2153,91.9621 30.882,90.1288 34.5,90C 36.0368,88.8904 36.7035,87.3904 36.5,85.5C 27.4938,85.6664 18.4938,85.4998 9.5,85C 9,84.5 8.5,84 8,83.5C 7.33333,64.8333 7.33333,46.1667 8,27.5C 8.71719,26.9558 9.21719,26.2891 9.5,25.5 Z M 11.5,73.5 C 34.1667,73.5 56.8333,73.5 79.5,73.5C 79.9452,76.3646 79.2785,78.8646 77.5,81C 56.1667,81.6667 34.8333,81.6667 13.5,81C 11.7215,78.8646 11.0548,76.3646 11.5,73.5 Z M 41.5,85.5 C 44.1667,85.5 46.8333,85.5 49.5,85.5C 49.3573,87.2624 49.6906,88.9291 50.5,90.5C 47.1667,91.8333 43.8333,91.8333 40.5,90.5C 41.3094,88.9291 41.6427,87.2624 41.5,85.5 Z"/></g>
<g><path style="opacity:0.885" fill="#61dbfb" d="M 88.5,61.5 C 94.6739,60.1729 96.8406,62.5062 95,68.5C 92.6667,75.1667 90.3333,75.1667 88,68.5C 87.2967,66.0709 87.4634,63.7375 88.5,61.5 Z"/></g>
<g><path style="opacity:0.821" fill="#61dbfb" d="M 43.5,75.5 C 44.8333,75.5 46.1667,75.5 47.5,75.5C 47.5,76.8333 47.5,78.1667 47.5,79.5C 46.1667,79.5 44.8333,79.5 43.5,79.5C 43.5,78.1667 43.5,76.8333 43.5,75.5 Z"/></g>
</svg>
