<?xml version="1.0"?>
<svg xmlnsRdf="http://www.w3.org/1999/02/22-rdf-syntax-ns#" xmlns="http://www.w3.org/2000/svg" xmlnsCc="http://web.resource.org/cc/" xmlnsXlink="http://www.w3.org/1999/xlink" xmlnsDc="http://purl.org/dc/elements/1.1/" id="svg2" viewBox="0 0 450 730" version="1.0">
  <defs id="defs4">
    <linearGradient id="linearGradient7085" y2="808.97" gradientUnits="userSpaceOnUse" x2="321.43" y1="838.08" x1="380.34">
      <stop id="stop4604" stop-color="#502c0a" offset="0"/>
      <stop id="stop4606" stop-color="#090501" offset="1"/>
    </linearGradient>
    <linearGradient id="linearGradient7087" y2="586.12" gradientUnits="userSpaceOnUse" x2="268.52" y1="764.26" x1="342.14">
      <stop id="stop3693" stop-color="#134813" offset="0"/>
      <stop id="stop3695" offset="1"/>
    </linearGradient>
    <linearGradient id="linearGradient7089" y2="373.02" gradientUnits="userSpaceOnUse" x2="260.64" y1="605.65" x1="354.94">
      <stop id="stop3685" stop-color="#124712" offset="0"/>
      <stop id="stop3687" offset="1"/>
    </linearGradient>
    <linearGradient id="linearGradient7091" y2="297.47" gradientUnits="userSpaceOnUse" x2="281.83" y1="477.7" x1="350.99">
      <stop id="stop3677" stop-color="#134813" offset="0"/>
      <stop id="stop3679" offset="1"/>
    </linearGradient>
    <linearGradient id="linearGradient7093" y2="270.47" gradientUnits="userSpaceOnUse" x2="293.62" y1="380.46" x1="422.1">
      <stop id="stop3701" stop-color="#1c6d1c" offset="0"/>
      <stop id="stop3703" stop-color="#0b2a0b" offset="1"/>
    </linearGradient>
  </defs>
  <g id="layer1">
    <g id="g7067" transform="translate(-135.48 -160.86)">
      <g id="g6436" fill="#2c2c2c" transform="matrix(1.0406 0 0 1.0192 -8.7722 -15.484)">
        <path id="path6438" d="m329.87 734.35h44.19c9.56 0 17.25 7.7 17.25 17.25v120.74c0 9.55-7.69 11.25-17.25 11.25h-44.19c-9.56 0-17.25-1.7-17.25-11.25v-120.74c0-9.55 7.69-17.25 17.25-17.25z"/>
        <g id="g6440">
          <path id="path6442" d="m229.14 355.6c-11.51-38.14 109.21-180.5 128-180.38 20.11 0.13 117.66 124.42 118.4 172.88-1.12 10.6-32-8.58-46.72-10.65-15.57 13.79 83.45 126.58 91.18 151.34 5.61 17.96-59.71 3.57-76.86 12.5 0 20.36 115.72 86.37 122.57 109.64 5.15 17.45-80.85 12.15-80.85 32.5 0 20.36 78.05 68.25 80.85 89.65 2.53 19.31-39.43 33.18-59.14 32.5-109.47-3.79-155.61 1.46-264.86 2.85-21.98 0.28-103-17.24-98.85-35.35 5.18-22.61 89.71-75 89.71-95.36s-96.04-9.98-89.71-26.79c9-23.9 115.64-94.77 104.28-103.92-14.35-11.57-53.45 22.11-67.14 4.64-15.56-19.85 98.33-134.2 98.33-154.83-2.43-4.42-42.71 8.71-49.19-1.22z"/>
          <path id="path6444" d="m571.6 745.27c-42.29 36.2-58.46 9.1-76.98 17.12-13.98 6.05-31.04 18.81-52.58 21.42-14.41 1.75-28.04-10.12-44.94-11.12-19.71-1.16-31.57 14.91-54 13.29-25.19-1.81-35.01-14.95-60.12-15.3-19.87-0.27-59.23 15.42-71.42 0.54-19.03-23.21-63.71-9.01-68.02-31.22-7.21-37.12 209.62-217.63 227.8-217.63 18.17 0 212.11 203.53 200.26 222.9z"/>
          <path id="path6446" d="m562.34 616.27c-31.76 9.87-52.65-1.91-71.18 6.11-13.98 6.05-38.93 23.3-70.95 23.82-29.03 0.46-57.76-34.9-81.1-18.18-32.79 23.48-90.28 24.93-101.25 6.31-20.56-34.9-90.41-3.74-90.41-25.96 0-37.8 188.61-181.76 206.78-181.76 18.18 0 213.37 162.39 208.11 189.66z"/>
          <path id="path6448" d="m521.18 498.28c-11.27 21.64-50.06-10.94-68.47-3.12-7.99 3.4-33.18 18.85-54.85 19.87-18.29 0.86-42.23-28.89-67.34-14.95-20.93 11.63-57.12 24.36-72.27 8.95-19.48-19.8-73.29 25.23-73.29-10.15 0-37.81 155.68-237.08 173.86-237.08s167.63 209.21 162.36 236.48z"/>
          <path id="path6450" d="m477.6 350.86c-9.15 11.14-38.01-16.74-66.54-1.23-30.52 16.58-94.91 12.13-110.93 4.25-22.18-10.91-61.55 13.32-72.03-0.06-10.13-36.43 111.98-172.06 130.15-172.06 18.18 0 128.93 149.37 119.35 169.1z"/>
        </g>
      </g>
      <g id="g5504" stroke="#000" stroke-width="9">
        <path id="rect3714" d="m329.87 734.35h44.19c9.56 0 17.25 7.7 17.25 17.25v120.74c0 9.55-7.69 11.25-17.25 11.25h-44.19c-9.56 0-17.25-1.7-17.25-11.25v-120.74c0-9.55 7.69-17.25 17.25-17.25z" fill="url(#linearGradient7085)"/>
        <g id="g3707">
          <path id="rect1872" d="m229.14 355.6c-11.51-38.14 109.21-180.5 128-180.38 20.11 0.13 117.66 124.42 118.4 172.88-1.12 10.6-32-8.58-46.72-10.65-15.57 13.79 83.45 126.58 91.18 151.34 5.61 17.96-59.71 3.57-76.86 12.5 0 20.36 115.72 86.37 122.57 109.64 5.15 17.45-80.85 12.15-80.85 32.5 0 20.36 78.05 68.25 80.85 89.65 2.53 19.31-39.43 33.18-59.14 32.5-109.47-3.79-155.61 1.46-264.86 2.85-21.98 0.28-103-17.24-98.85-35.35 5.18-22.61 89.71-75 89.71-95.36s-96.04-9.98-89.71-26.79c9-23.9 115.64-94.77 104.28-103.92-14.35-11.57-53.45 22.11-67.14 4.64-15.56-19.85 98.33-134.2 98.33-154.83-2.43-4.42-42.71 8.71-49.19-1.22z" fill="#134813"/>
          <path id="path2770" d="m571.6 745.27c-42.29 36.2-58.46 9.1-76.98 17.12-13.98 6.05-31.04 18.81-52.58 21.42-14.41 1.75-28.04-10.12-44.94-11.12-19.71-1.16-31.57 14.91-54 13.29-25.19-1.81-35.01-14.95-60.12-15.3-19.87-0.27-59.23 15.42-71.42 0.54-19.03-23.21-63.71-9.01-68.02-31.22-7.21-37.12 209.62-217.63 227.8-217.63 18.17 0 212.11 203.53 200.26 222.9z" fill="url(#linearGradient7087)"/>
          <path id="path2768" d="m562.34 616.27c-31.76 9.87-52.65-1.91-71.18 6.11-13.98 6.05-38.93 23.3-70.95 23.82-29.03 0.46-57.76-34.9-81.1-18.18-32.79 23.48-90.28 24.93-101.25 6.31-20.56-34.9-90.41-3.74-90.41-25.96 0-37.8 188.61-181.76 206.78-181.76 18.18 0 213.37 162.39 208.11 189.66z" fill="url(#linearGradient7089)"/>
          <path id="path2766" d="m521.18 498.28c-11.27 21.64-50.06-10.94-68.47-3.12-7.99 3.4-33.18 18.85-54.85 19.87-18.29 0.86-42.23-28.89-67.34-14.95-20.93 11.63-57.12 24.36-72.27 8.95-19.48-19.8-73.29 25.23-73.29-10.15 0-37.81 155.68-237.08 173.86-237.08s167.63 209.21 162.36 236.48z" fill="url(#linearGradient7091)"/>
          <path id="path2763" d="m477.6 350.86c-9.15 11.14-38.01-16.74-66.54-1.23-30.52 16.58-94.91 12.13-110.93 4.25-22.18-10.91-61.55 13.32-72.03-0.06-10.13-36.43 111.98-172.06 130.15-172.06 18.18 0 128.93 149.37 119.35 169.1z" fill="url(#linearGradient7093)"/>
        </g>
      </g>
    </g>
  </g>
  <metadata>
    <rdf:RDF>
      <cc:Work>
        <dc:format>image/svg+xml</dc:format>
        <dc:type rdf:resource="http://purl.org/dc/dcmitype/StillImage"/>
        <cc:license rdf:resource="http://creativecommons.org/licenses/publicdomain/"/>
        <dc:publisher>
          <cc:Agent rdf:about="http://openclipart.org/">
            <dc:title>Openclipart</dc:title>
          </cc:Agent>
        </dc:publisher>
      </cc:Work>
      <cc:License rdf:about="http://creativecommons.org/licenses/publicdomain/">
        <cc:permits rdf:resource="http://creativecommons.org/ns#Reproduction"/>
        <cc:permits rdf:resource="http://creativecommons.org/ns#Distribution"/>
        <cc:permits rdf:resource="http://creativecommons.org/ns#DerivativeWorks"/>
      </cc:License>
    </rdf:RDF>
  </metadata>
</svg>
