<svg xmlns="http://www.w3.org/2000/svg" xml:space="preserve" style="enable-background:new 0 0 1920 1080" viewBox="0 0 1920 600"><style>.st0{fill:#006937}.st1{fill:#fff}</style><switch><g><g id="Layer_1"><path d="M960 781.25c-64.44 0-125.02-25.09-170.59-70.66-45.57-45.57-70.66-106.15-70.66-170.59s25.09-125.02 70.66-170.59c45.57-45.57 106.15-70.66 170.59-70.66s125.02 25.09 170.59 70.66c45.57 45.57 70.66 106.15 70.66 170.59s-25.09 125.02-70.66 170.59c-45.57 45.57-106.15 70.66-170.59 70.66z" class="st0"/><path d="M960 303.25c-63.24 0-122.69 24.63-167.41 69.34-44.72 44.72-69.34 104.17-69.34 167.41s24.63 122.69 69.34 167.41c44.72 44.72 104.17 69.34 167.41 69.34s122.69-24.63 167.41-69.34c44.72-44.72 69.34-104.17 69.34-167.41s-24.63-122.69-69.34-167.41c-44.72-44.71-104.17-69.34-167.41-69.34z" class="st1"/><path d="M960 766c124.82 0 226-101.18 226-226s-101.18-226-226-226-226 101.18-226 226 101.18 226 226 226" class="st0"/><path d="M792 540c0 92.63 75.36 168 168 168s168-75.36 168-168-75.36-168-168-168-168 75.37-168 168" class="st1"/><path d="M1042.57 465.73v149.06l7.67 20.09h-56.37v-81.41h-65.85v81.41h-56.14l7.74-20.09V465.73l-7.67-19.55h56.07v70.64h65.85v-70.64h56.07l-7.37 19.55zM1122 540c0-89.47-72.53-162-162-162s-162 72.53-162 162 72.53 162 162 162 162-72.53 162-162" style="fill:#35a987"/></g><g id="Layer_2"><path d="M753.53 519.31c-1.13.31-1.95.94-2.47 1.88-.61 1.07-.96 2.75-1.04 5.06-.16 4.45.99 8.07 3.43 10.88s5.81 4.29 10.1 4.44c4.25.15 7.73-1.06 10.43-3.64s4.13-5.96 4.27-10.15c.08-2.21-.15-3.95-.68-5.21-.44-1.1-1.23-1.88-2.37-2.34l.02-.62c2.27.08 4.69.13 7.25.16.28 1 .5 2.08.65 3.24.23 1.61.31 3.39.24 5.34-.21 5.85-2.09 10.59-5.64 14.21-3.72 3.81-8.51 5.61-14.36 5.4-5.85-.21-10.47-2.4-13.84-6.59-3.28-4.05-4.81-9.19-4.59-15.39.05-1.41.16-2.8.34-4.17.17-1.21.41-2.44.71-3.67 1.98.17 4.5.35 7.57.56l-.02.61zM777.33 501.15c3.63 2.65 5.81 4.07 6.56 4.26.65.16 1.1-.12 1.35-.85l.65.16c-.5 1.89-.91 3.47-1.23 4.74-.43 1.74-.79 3.23-1.07 4.48l-.65-.16c.08-.74-.55-1.71-1.92-2.93-1.36-1.21-4.98-3.99-10.86-8.33l-19.4-14.44.23-.93 23.9-3.39c7.22-1.04 11.7-1.75 13.45-2.14 1.75-.39 2.75-.91 3.02-1.57l.65.16c-.33 1.2-.72 2.67-1.15 4.41-.35 1.4-.77 3.14-1.25 5.23l-.65-.16c.12-.76-.14-1.22-.79-1.39-.71-.18-3.3.02-7.77.59l-3.07 12.26zm-1.82-11.74-.15.01c-7.74.87-12.08 1.31-13.04 1.3l-.02.09c.67.36 4.28 2.87 10.84 7.5l.14.03 2.23-8.93zM774.78 463.73c-5.84-2.69-9.4-4.23-10.66-4.63-1.48-.47-2.48-.26-3.03.62l-.65-.3c.6-1.24 1.32-2.76 2.15-4.56.76-1.66 1.43-3.15 2-4.47l.65.3c-.26.94.25 1.82 1.53 2.66 1.15.71 4.64 2.39 10.46 5.07l15.4 7.07c.49.23.85.09 1.08-.4l3.31-7.2c.49-1.08.71-1.99.65-2.74-.06-.75-.41-1.36-1.04-1.82l.28-.61c2.49 1.25 4.64 2.31 6.46 3.18l-8.82 19.19-.7-.32c.34-.97-.19-1.88-1.59-2.74-1.15-.71-4.87-2.5-11.15-5.39l-6.33-2.91zM799.61 420c-4.94-4.07-7.96-6.47-9.08-7.18-1.28-.81-2.29-.89-3.02-.26l-.52-.43c1.07-1.35 2.09-2.63 3.04-3.84 1.91-2.37 3.01-3.7 3.3-4 1.92-2.23 3.85-3.79 5.79-4.68 4.1-1.85 7.97-1.26 11.62 1.75 3.41 2.81 4.84 6.25 4.3 10.33-.39 2.99-2.03 6.23-4.9 9.71l1.3 1.07c3.85 3.18 6.27 5.05 7.26 5.61 1.13.64 2.06.64 2.8 0l.52.43a262.012 262.012 0 0 0-6.11 7.41l-.52-.43c.49-.84.18-1.85-.94-3.01-.95-.95-4.11-3.64-9.47-8.06l-5.37-4.42zm7.46-14.02c-2.1-1.73-4.3-2.13-6.59-1.21-1.27.53-2.47 1.49-3.61 2.87-.45.54-.88 1.12-1.3 1.73l10.85 8.95c.6-.67 1.02-1.19 1.28-1.55.99-1.3 1.62-2.52 1.9-3.66.33-1.26.31-2.48-.08-3.68-.44-1.32-1.25-2.46-2.41-3.42l-.04-.03zM852.62 374.34c3.48 4.35 4.94 9.15 4.38 14.42-.56 5.26-3.07 9.68-7.51 13.24-4.22 3.38-8.95 4.8-14.17 4.27-5.22-.53-9.51-2.9-12.87-7.1-3.52-4.4-4.94-9.23-4.25-14.49.69-5.26 3.25-9.67 7.7-13.23 4.25-3.4 8.91-4.83 13.98-4.31 5.08.53 9.31 2.92 12.71 7.17l.03.03zm-4.73 4.09c-2.46-3.07-5.52-4.87-9.17-5.39-3.65-.52-6.94.39-9.87 2.73-3 2.4-4.64 5.43-4.92 9.1-.28 3.67.84 7.08 3.36 10.23 2.5 3.12 5.58 4.94 9.23 5.46 3.65.52 6.95-.4 9.9-2.76 2.97-2.38 4.61-5.4 4.9-9.05.29-3.66-.84-7.08-3.4-10.28l-.03-.04zM861.56 365.59c-2.95-5.72-4.8-9.12-5.54-10.21-.88-1.28-1.8-1.74-2.77-1.38l-.33-.64c1.24-.6 2.74-1.36 4.5-2.27 1.62-.84 3.06-1.6 4.33-2.29l.33.64c-.78.58-.92 1.59-.43 3.03.47 1.27 2.18 4.75 5.11 10.43l7.77 15.06c.25.48.62.6 1.1.35l7.04-3.63c1.05-.54 1.79-1.13 2.2-1.76.41-.63.52-1.32.31-2.08l.6-.31c1.19 2.52 2.24 4.68 3.13 6.49l-18.77 9.69-.35-.68c.87-.56 1.01-1.6.43-3.14-.47-1.27-2.3-4.97-5.47-11.12l-3.19-6.18zM903.95 355.53l.57 1.78c1.76 5.48 2.91 8.76 3.46 9.83.66 1.33 1.51 1.88 2.55 1.65l.21.64c-1.62.49-3.23.99-4.81 1.49-2.07.66-3.71 1.21-4.92 1.63l-.22-.69c.98-.41 1.35-1.34 1.12-2.78-.21-1.18-1.19-4.49-2.94-9.95l-.45-1.42-5.87-5.73c-5.52-5.36-8.89-8.54-10.12-9.56-1.43-1.22-2.53-1.76-3.29-1.62l-.21-.64c.95-.27 2.42-.73 4.4-1.36a353.3 353.3 0 0 0 5.38-1.78l.21.64c-.77.31-1.07.75-.9 1.29.21.67 2.02 2.68 5.41 6.03 1.57 1.55 3.59 3.59 6.05 6.13l.09-.03c.09-.57.58-3.38 1.48-8.44.85-4.78 1.17-7.52.94-8.22-.17-.52-.61-.7-1.33-.53l-.21-.64c2.17-.66 3.87-1.19 5.09-1.58 1.49-.48 2.83-.92 4.01-1.34l.2.64c-.61.3-1.15 1.34-1.61 3.14-.38 1.53-1.32 6.1-2.81 13.71l-1.48 7.71zM974.71 346.7c.05 6.91.18 11.07.38 12.48.24 1.63.9 2.49 1.99 2.58v.67c-1.54-.02-3.18-.02-4.94-.01-1.79.01-3.58.04-5.38.09v-.67c1.09-.1 1.74-.91 1.95-2.41.15-1.25.2-4.9.16-10.94l-.02-2.59-17.52.13.02 2.59c.05 6.05.17 9.69.37 10.94.24 1.5.88 2.3 1.94 2.39l.01.67c-1.7-.02-3.41-.02-5.14-.01-1.98.02-3.68.04-5.09.09l-.01-.67c1.06-.1 1.69-.97 1.9-2.61.15-1.41.2-5.57.15-12.48l-.05-6.96c-.05-6.46-.16-10.35-.33-11.66-.2-1.57-.82-2.39-1.84-2.48v-.67c1.34.02 3.02.03 5.04.01 1.82-.01 3.46-.04 4.9-.08v.67c-.96.1-1.54.89-1.76 2.37-.15 1.22-.2 4.79-.16 10.7l.02 2.26 17.52-.13-.02-2.3c-.04-5.89-.15-9.44-.32-10.65-.2-1.47-.77-2.25-1.7-2.34v-.67c1.44.02 3.09.02 4.94.01 1.79-.01 3.36-.04 4.7-.08v.67c-.89.1-1.43.94-1.61 2.51-.15 1.31-.2 5.2-.15 11.66l.05 6.92zM992.18 341.87c1.51-6.32 2.34-10.12 2.48-11.4.18-1.57-.2-2.52-1.15-2.84l.16-.65a255.298 255.298 0 0 0 9.76 2.33l-.16.65c-.99-.14-1.77.53-2.36 2-.46 1.24-1.44 5-2.95 11.29l-1.52 6.35c-.83 3.45-.77 6.25.17 8.38 1.05 2.36 3.08 3.9 6.1 4.62 2.8.67 5.22.25 7.26-1.27 1.86-1.43 3.22-3.98 4.1-7.65l1.49-6.21c1.51-6.32 2.34-10.12 2.48-11.4.15-1.61-.27-2.57-1.29-2.87l.16-.65c1.83.47 3.43.87 4.8 1.2 1.74.42 3.29.77 4.63 1.06l-.16.65c-.89-.15-1.61.54-2.17 2.05-.46 1.24-1.45 5-2.95 11.29l-1.48 6.16c-1.19 4.95-3.19 8.53-6.03 10.75-3.4 2.67-7.47 3.44-12.2 2.31-5.38-1.29-8.93-4.15-10.63-8.57-1.14-2.94-1.17-6.63-.11-11.08l1.57-6.5zM1046.62 342.35l.76.4-.01 31.11.08.04c1.49-1.17 10.14-6.96 25.97-17.37l.76.4-7.93 20.73c-2.45 6.41-3.88 10.37-4.27 11.86-.44 1.65-.29 2.71.44 3.17l-.32.59c-1.29-.72-2.65-1.46-4.09-2.22-1.56-.82-3.1-1.62-4.65-2.41l.31-.59c1.04.44 1.96-.1 2.76-1.63.5-.93 1.57-3.55 3.23-7.85 1.98-5.04 3.43-8.54 4.36-10.51l-.04-.02c-1.79 1.4-5.04 3.74-9.74 7.01-2.02 1.43-5.74 3.88-11.16 7.34l-.81-.43c-.16-6.67-.22-11.18-.18-13.51.11-5.41.26-9.35.45-11.82l-.04-.02c-1.01 1.71-3.11 4.89-6.29 9.54-2.5 3.71-4.02 6.05-4.54 7.04-.84 1.58-.79 2.68.16 3.29l-.31.59c-1.48-.82-2.99-1.64-4.52-2.44-1.42-.75-2.72-1.42-3.93-2.02l.31-.59c.81.32 1.76-.13 2.87-1.36 1.1-1.23 3.61-4.62 7.54-10.19l12.83-18.13zM1093.16 406.8c-2.41 2.74-5.41 3.83-8.98 3.28-2.75-.42-5.76-2.08-9.05-4.98-.43-.38-1-.9-1.7-1.56-.82-.77-1.4-1.3-1.73-1.59l-2.88-2.61.44-.5c.79.61 1.79.36 3.02-.73 1.03-.93 3.83-3.98 8.41-9.16l4.61-5.22c4.28-4.85 6.79-7.79 7.54-8.84.87-1.28 1-2.25.4-2.92l.45-.5c.41.36 1.41 1.23 3.02 2.6 2.8 2.39 4.11 3.5 3.92 3.33 1.73 1.52 3.05 3.05 3.97 4.56.92 1.52 1.38 3.13 1.37 4.83-.04 2.18-.88 4.19-2.51 6.04-1.36 1.54-2.99 2.47-4.91 2.81-1.92.34-3.69.07-5.31-.81l-.06.07c1.44 1.7 2.2 3.67 2.25 5.9.06 2.23-.68 4.22-2.23 5.97l-.04.03zm-4.17-4.27c1.35-1.54 1.76-3.25 1.21-5.14-.48-1.58-1.53-3.08-3.14-4.5-.5-.44-.97-.84-1.4-1.17l-7.24 8.21c-.36.41-.49.72-.38.94.27.37.74.85 1.42 1.44 1.06.93 2.22 1.6 3.49 1.99 2.38.69 4.38.11 6.01-1.74l.03-.03zm9.75-13.15c1.14-1.3 1.61-2.67 1.41-4.13-.21-1.46-.98-2.78-2.32-3.97-.53-.46-1.11-.92-1.75-1.35l-7.34 8.31c.27.28.58.58.94.89.84.74 1.69 1.3 2.55 1.68 2.52 1.11 4.68.65 6.48-1.39l.03-.04zM1130.03 439.67c-4.49 3.29-9.35 4.55-14.59 3.77-5.24-.78-9.54-3.47-12.91-8.06-3.2-4.36-4.42-9.14-3.67-14.33.75-5.19 3.3-9.38 7.63-12.56 4.54-3.33 9.42-4.54 14.66-3.64 5.23.91 9.53 3.66 12.9 8.25 3.22 4.39 4.46 9.1 3.72 14.15-.74 5.05-3.3 9.18-7.69 12.4l-.05.02zm-3.88-4.89c3.17-2.33 5.1-5.31 5.77-8.94.67-3.63-.1-6.95-2.31-9.97-2.27-3.1-5.23-4.86-8.89-5.3-3.65-.44-7.1.54-10.36 2.92-3.23 2.37-5.17 5.36-5.85 8.99-.67 3.63.11 6.97 2.34 10.01 2.25 3.07 5.2 4.83 8.84 5.27 3.64.45 7.11-.54 10.41-2.97l.05-.01zM1139.37 450.88c5.86-2.64 9.36-4.31 10.49-4.99 1.32-.81 1.83-1.7 1.53-2.69l.66-.3c.54 1.27 1.21 2.81 2.03 4.61.75 1.66 1.43 3.14 2.06 4.44l-.66.3c-.54-.81-1.54-1.01-3.01-.59-1.29.41-4.85 1.93-10.69 4.56l-15.44 6.96c-.5.22-.63.58-.41 1.08l3.26 7.22c.49 1.08 1.03 1.84 1.64 2.29.61.45 1.29.58 2.06.42l.28.61c-2.58 1.06-4.79 1.98-6.64 2.78l-8.68-19.25.7-.32c.51.89 1.55 1.09 3.11.6 1.29-.41 5.09-2.03 11.39-4.87l6.32-2.86zM1155.59 511.04c-6.51 1.52-12.14.39-16.87-3.41-3.4-2.72-5.78-7.01-7.15-12.87-.15-.62-.34-1.53-.59-2.72-.31-1.47-.51-2.4-.6-2.77l-1.01-4.74.65-.15c.33 1.01 1.32 1.43 2.96 1.28 1.34-.15 5.38-1.01 12.11-2.58l6.78-1.58c6.26-1.46 10-2.42 11.21-2.86 1.42-.53 2.06-1.3 1.92-2.32l.7-.16c.29 1.08.73 2.76 1.32 5.02 1.05 4.09 1.56 6.06 1.53 5.9 1.17 5.02 1.19 9.32.05 12.9-.89 2.8-2.52 5.19-4.88 7.15-2.26 1.87-4.96 3.18-8.11 3.91h-.02zm-1.69-5.97c4.64-1.08 7.77-3.52 9.38-7.32 1.08-2.55 1.2-5.64.35-9.25-.24-1.03-.56-2.2-.97-3.52l-25.76 6.01c-.47.11-.67.49-.59 1.15.07.66.22 1.48.46 2.48.87 3.71 2.55 6.5 5.06 8.38 3.34 2.47 7.34 3.17 12.02 2.07h.05zM1170.04 531.39l-.18-6.86c-.03-1.28-.24-2.19-.6-2.74-.37-.55-1.03-.92-2-1.12l-.02-.72 7.29-.2.78 28.84-7.29.2-.02-.67c1.02-.25 1.71-.72 2.08-1.4.24-.55.35-1.42.31-2.6l-.18-6.86-16.99.46c-6.94.19-11.11.39-12.52.62-1.66.27-2.49.93-2.49 1.99l-.67.02c-.02-1.82-.05-3.52-.09-5.09-.05-1.82-.11-3.54-.19-5.13l.67-.02c.16 1.05 1.04 1.67 2.64 1.85 1.41.12 5.57.09 12.48-.1l16.99-.47z" class="st1"/></g><g id="Layer_2_copy"><path d="M771.95 583.99c.32 1.37.11 2.65-.64 3.82s-1.77 1.92-3.08 2.22c-1.43.33-2.75.13-3.94-.61s-1.95-1.83-2.29-3.26c-.32-1.37-.13-2.66.58-3.86.71-1.2 1.75-1.96 3.12-2.28 1.4-.33 2.71-.11 3.93.66 1.21.77 1.98 1.85 2.31 3.26l.01.05zM785.23 626.06c4.97-2.7 7.93-4.37 8.89-5.02 1.13-.8 1.54-1.57 1.24-2.3l.52-.28c1.91 3.58 3.24 6.05 3.97 7.4 1.5 2.76 3.03 5.55 4.61 8.4-2.06 1.02-3.92 1.97-5.58 2.84l-.26-.48c.75-.56 1-1.36.77-2.38-.12-.57-.49-1.42-1.1-2.56l-2.89-5.31-8.64 4.69 2.53 4.65c.75 1.38 1.3 2.27 1.64 2.67.35.4.76.55 1.25.45l.26.48c-1.15.59-2.04 1.06-2.68 1.41-.74.4-1.73.96-2.97 1.66l-.24-.44c.4-.38.54-.83.42-1.35-.12-.52-.55-1.46-1.29-2.81l-2.57-4.72-8.08 4.39c-.42.23-.65.41-.71.55s-.01.4.13.77l3.27 6.02c.56.97 1.03 1.61 1.42 1.91.54.41 1.16.5 1.87.28l.26.48c-2.7 1.37-4.53 2.32-5.49 2.84l-4.37-8.14c-1.97-3.62-3.44-6.31-4.43-8.06l.52-.28c.46.67 1.36.74 2.69.21 1.12-.45 4.36-2.13 9.7-5.03l5.34-2.94zM800.41 670.37c-2.03 1.53-4.27 2.08-6.71 1.64-2.59-.5-4.85-2.04-6.79-4.61-1.5-1.99-2.45-3.9-2.85-5.74 1.61-1.07 3.38-2.3 5.32-3.69l.33.44c-1.42 1.7-1.22 3.76.6 6.17.93 1.23 2.01 2.01 3.26 2.33 1.24.32 2.41.07 3.51-.75 1.32-.99 2.02-2.58 2.1-4.74-.01-1.04 0-2.67.06-4.88.06-3.87 1.32-6.73 3.78-8.59 1.99-1.5 4.22-2.04 6.7-1.61 2.48.43 4.65 1.88 6.53 4.36 1.13 1.5 1.93 2.95 2.39 4.35-1.33.89-3.06 2.11-5.19 3.65l-.33-.44c.64-.69.91-1.47.81-2.35-.05-.77-.41-1.59-1.06-2.46-.89-1.18-1.94-1.92-3.13-2.19-1.19-.28-2.3-.03-3.33.75-1.12.84-1.76 2.11-1.91 3.81-.13 2.62-.24 5.23-.35 7.84-.36 2.87-1.59 5.09-3.7 6.68l-.04.03zM828.27 671.09l-4.29-4.2c-.8-.78-1.48-1.24-2.05-1.36-.57-.12-1.21.05-1.94.51l-.45-.44 4.46-4.56 18.05 17.64-4.46 4.56-.42-.41c.49-.78.64-1.49.45-2.14-.18-.49-.65-1.1-1.39-1.83l-4.29-4.2-10.39 10.63c-4.25 4.34-6.74 7.02-7.48 8.01-.88 1.18-1 2.1-.35 2.77l-.41.42c-1.12-1.14-2.17-2.18-3.15-3.14-1.14-1.12-2.22-2.15-3.24-3.11l.41-.42c.74.57 1.67.42 2.79-.45.96-.78 3.56-3.34 7.78-7.66l10.37-10.62zM835.48 704.79c-3.32 2.1-5.18 3.42-5.57 3.97-.34.48-.26.94.26 1.37l-.34.48c-1.37-1.02-2.53-1.86-3.46-2.53a234.1 234.1 0 0 0-3.3-2.31l.34-.48c.57.31 1.57.1 3-.62s4.85-2.77 10.27-6.16l17.99-11.15.68.49-4.93 20.54c-1.48 6.21-2.34 10.08-2.58 11.63-.24 1.55-.14 2.53.31 2.96l-.34.48c-.87-.66-1.95-1.44-3.22-2.35-1.03-.73-2.31-1.63-3.85-2.7l.34-.48c.58.35 1.04.28 1.38-.2.38-.52 1.05-2.69 2.02-6.51l-9-6.43zm10.13 2.29.04-.13c1.78-6.58 2.82-10.25 3.14-11.03l-.07-.05c-.51.43-3.71 2.56-9.59 6.41l-.07.1 6.55 4.7zM877.41 728.2c-1.43 2.85-3.72 4.45-6.86 4.78-2.42.26-5.34-.47-8.77-2.19-.45-.23-1.04-.54-1.78-.94-.86-.46-1.47-.79-1.82-.96l-3.02-1.56.26-.53c.8.34 1.6-.09 2.39-1.29.67-1.01 2.35-4.22 5.07-9.63l2.73-5.44c2.54-5.05 4.01-8.11 4.41-9.16.45-1.28.35-2.13-.32-2.56l.26-.53c.43.21 1.47.72 3.13 1.53 2.9 1.4 4.25 2.04 4.05 1.94 1.8.91 3.26 1.9 4.38 2.98s1.87 2.34 2.24 3.78c.45 1.85.19 3.75-.78 5.67-.8 1.6-1.98 2.76-3.53 3.47-1.55.71-3.1.88-4.67.5l-.04.08c1.6 1.12 2.68 2.61 3.22 4.49.55 1.87.36 3.72-.55 5.55v.02zm-4.49-2.68c.8-1.6.76-3.14-.12-4.62-.76-1.23-1.98-2.26-3.66-3.1-.53-.26-1.01-.49-1.45-.68l-4.3 8.56c-.21.43-.25.72-.11.88.31.25.82.55 1.52.9 1.1.55 2.23.86 3.4.91 2.17.05 3.73-.88 4.7-2.81l.02-.04zm5.32-13.31c.68-1.35.77-2.62.27-3.81s-1.45-2.14-2.85-2.84c-.55-.28-1.15-.53-1.78-.75l-4.35 8.67c.29.18.62.36.99.55.88.44 1.72.72 2.53.85 2.38.38 4.1-.5 5.17-2.62l.02-.05zM892.14 722.61c1.78-5.34 2.78-8.57 3.01-9.71.27-1.33-.01-2.19-.82-2.58l.2-.6c1.13.41 2.52.88 4.17 1.43 1.51.5 2.87.94 4.08 1.31l-.2.6c-.84-.13-1.56.39-2.16 1.58-.5 1.07-1.64 4.26-3.41 9.58l-4.69 14.06c-.15.45 0 .75.45.9l6.57 2.19c.98.33 1.8.43 2.44.3.65-.12 1.14-.48 1.49-1.08l.56.19c-.85 2.28-1.57 4.26-2.15 5.92l-17.53-5.84.21-.64c.88.2 1.62-.35 2.23-1.65.5-1.07 1.71-4.48 3.62-10.21l1.93-5.75zM922.36 737.25c-1.21 5.93-1.85 9.5-1.93 10.71-.09 1.41.31 2.28 1.18 2.6l-.12.58c-1.53-.34-2.98-.65-4.35-.93-1.65-.33-3.1-.62-4.37-.85l.13-.62c.9.07 1.59-.56 2.06-1.89.38-1.15 1.17-4.68 2.37-10.58l1.23-6.01c1.13-5.54 1.74-8.88 1.83-10 .11-1.38-.27-2.2-1.13-2.46l.13-.62a209.158 209.158 0 0 0 8.52 1.74l-.13.62c-.84-.08-1.48.53-1.92 1.84-.39 1.09-1.15 4.39-2.28 9.91l-1.22 5.96zM950.37 745.92c-.22 2.54-1.31 4.57-3.27 6.08-2.1 1.59-4.76 2.24-7.97 1.97-2.48-.21-4.54-.79-6.17-1.71.28-1.91.55-4.05.81-6.42l.54.05c.32 2.19 1.98 3.42 4.99 3.68 1.53.13 2.84-.15 3.91-.86 1.07-.71 1.67-1.75 1.79-3.11.14-1.65-.56-3.22-2.12-4.74-.78-.69-1.98-1.79-3.59-3.3-2.84-2.63-4.12-5.48-3.86-8.55.21-2.48 1.31-4.5 3.28-6.06s4.51-2.2 7.61-1.93c1.87.16 3.48.54 4.83 1.13-.22 1.58-.47 3.68-.76 6.3l-.54-.05c-.09-.93-.49-1.66-1.2-2.17-.6-.47-1.45-.76-2.54-.85-1.48-.13-2.72.16-3.72.86s-1.56 1.69-1.67 2.98c-.12 1.39.4 2.72 1.55 3.97 1.86 1.85 3.73 3.68 5.59 5.5 1.89 2.19 2.72 4.59 2.5 7.21l.01.02zM989.39 739.03c.5 6.03.88 9.65 1.15 10.86.31 1.41.95 2.11 1.9 2.12l.05.59c-1.34.08-2.78.19-4.31.32-1.56.13-3.12.27-4.68.43l-.05-.59c.94-.16 1.46-.91 1.54-2.24.05-1.1-.14-4.29-.58-9.56l-.19-2.26-15.28 1.26.19 2.26c.44 5.27.78 8.45 1.04 9.52.3 1.29.92 1.95 1.85 1.95l.05.59c-1.48.09-2.98.2-4.48.33-1.73.14-3.21.28-4.43.41l-.05-.59c.91-.16 1.41-.96 1.49-2.4.04-1.24-.19-4.87-.69-10.9l-.5-6.07c-.47-5.64-.82-9.02-1.05-10.15-.28-1.35-.87-2.03-1.77-2.04l-.05-.59c1.17-.07 2.64-.18 4.4-.32 1.59-.13 3.01-.26 4.27-.4l.05.59c-.83.15-1.29.88-1.38 2.18-.05 1.07.14 4.19.56 9.35l.16 1.97 15.28-1.26-.17-2.01c-.42-5.13-.75-8.23-.98-9.27-.27-1.27-.82-1.91-1.63-1.93l-.05-.59c1.26-.08 2.7-.18 4.31-.32 1.56-.13 2.93-.26 4.1-.38l.05.59c-.77.15-1.19.91-1.24 2.29-.04 1.16.17 4.55.63 10.19l.49 6.07zM1003.31 729.97c-1.47-5.46-2.41-8.73-2.81-9.81-.52-1.28-1.17-1.86-1.95-1.74l-.15-.57c3.93-1.03 6.63-1.74 8.12-2.14 3.03-.81 6.11-1.66 9.24-2.53.52 2.24 1 4.27 1.46 6.09l-.53.14c-.38-.86-1.09-1.29-2.13-1.3-.58-.02-1.5.14-2.74.48l-5.84 1.57 2.55 9.49 5.11-1.38c1.51-.41 2.51-.73 2.98-.97.47-.24.71-.61.72-1.11l.53-.14c.31 1.25.56 2.23.75 2.93.22.81.53 1.9.92 3.27l-.49.13c-.27-.48-.68-.72-1.21-.72-.54 0-1.55.2-3.04.6l-5.19 1.4 2.39 8.88c.12.46.25.73.37.81s.38.1.78.05l6.61-1.78c1.07-.32 1.8-.63 2.18-.94.52-.43.76-1.02.7-1.75l.53-.14c.7 2.94 1.2 4.94 1.48 5.99l-8.93 2.36a785.42 785.42 0 0 0-8.87 2.43l-.15-.57c.76-.29 1.04-1.15.83-2.57-.18-1.2-1.06-4.73-2.63-10.6l-1.59-5.86zM1057.07 712.46c2.5 5.29 2.57 10.31.2 15.05-1.7 3.41-4.93 6.24-9.69 8.49-.51.24-1.25.57-2.22 1-1.2.54-1.95.88-2.26 1.02l-3.87 1.74-.25-.53c.8-.47.98-1.39.55-2.77-.38-1.12-1.86-4.42-4.44-9.88l-2.6-5.5c-2.41-5.09-3.91-8.11-4.52-9.06-.71-1.12-1.49-1.52-2.34-1.22l-.27-.57c.87-.44 2.22-1.13 4.05-2.05 3.3-1.66 4.89-2.45 4.77-2.39 4.08-1.93 7.75-2.74 11.02-2.43 2.56.24 4.9 1.2 7.02 2.86 2.02 1.58 3.63 3.66 4.84 6.21l.01.03zm-4.79 2.54c-1.78-3.77-4.45-6-7.99-6.67-2.38-.45-5.04.02-7.98 1.4-.83.4-1.78.89-2.83 1.48l9.9 20.92c.18.38.54.48 1.09.3s1.23-.46 2.04-.85c3.01-1.42 5.09-3.38 6.23-5.88 1.5-3.31 1.35-6.87-.44-10.66l-.02-.04zM1072.79 691.37l-1.81-1.02c1.15-2.05 2.67-5.44 4.57-10.16l1.6-1.3 1.5 1.92a666.1 666.1 0 0 0 5.85 7.26l4.85 5.96c2.67 3.28 4.43 5.4 5.29 6.37 1.2 1.34 2.12 2.12 2.77 2.35.54.21 1.16.07 1.87-.44l.42.52a217.87 217.87 0 0 0-3.87 3.1c-1.3 1.06-2.73 2.24-4.28 3.53l-.4-.49c.75-.68 1.09-1.36 1.03-2.03-.06-.67-.62-1.73-1.69-3.17-.73-1.03-2.44-3.2-5.12-6.5l-7.87-9.68c-.62-.76-.86-1.07-.71-.94-.38-.38-.69-.43-.94-.16-.69 1.18-1.71 2.81-3.06 4.88zM1110.85 692.53c-.25-3.76-.66-7.39-1.22-10.9-.3-1.79-.7-3.65-1.21-5.56h-.06c-.22 1.61-1 3.12-2.35 4.54-2.03 2.13-4.42 3.23-7.17 3.3-2.75.07-5.18-.9-7.29-2.91-2.25-2.14-3.42-4.69-3.52-7.64-.1-3.23 1.05-6.1 3.44-8.61 2.36-2.47 4.99-3.75 7.91-3.83 2.92-.08 5.59 1.03 8 3.32 1.6 1.53 2.89 3.52 3.86 6 .87 2.18 1.63 4.99 2.29 8.44.52 2.62.99 5.81 1.39 9.56l-4.07 4.29zm-16.38-24.52c-1.27 1.34-1.86 2.89-1.74 4.66.11 1.77.83 3.28 2.15 4.54 1.38 1.31 2.94 1.97 4.68 1.96 1.74 0 3.26-.68 4.55-2.04 1.37-1.44 2-3.01 1.87-4.71s-.88-3.22-2.28-4.55c-1.38-1.31-2.94-1.96-4.67-1.95s-3.25.7-4.54 2.06l-.02.03zM1109.87 654.78l-2.01-.49c.55-2.29 1.09-5.96 1.64-11.02l1.18-1.68 1.97 1.44c1.61 1.17 4.14 2.97 7.6 5.4l6.29 4.42c3.46 2.43 5.73 4 6.81 4.69 1.51.96 2.62 1.46 3.31 1.5.57.06 1.13-.25 1.68-.92l.55.39a328.694 328.694 0 0 0-6.05 8.59l-.51-.36c.53-.86.68-1.6.44-2.23s-1.07-1.5-2.49-2.6c-.98-.79-3.21-2.42-6.69-4.87l-10.2-7.18c-.8-.56-1.11-.8-.94-.71-.47-.26-.78-.23-.95.1-.35 1.32-.89 3.17-1.63 5.53zM1130.59 636.25c.77-1.52 1.29-2.8 1.55-3.83.37-1.29.46-2.4.28-3.32-.26-1.43-1.08-2.52-2.46-3.25-1.26-.67-2.52-.75-3.79-.25-1.26.5-2.29 1.5-3.07 2.98-1.09 2.05-1.36 3.79-.81 5.22.2.52.55 1.03 1.04 1.54l-.25.48c-2-1.06-3.83-1.98-5.48-2.75.09-2.39.75-4.75 1.98-7.07 1.31-2.47 2.87-4.18 4.7-5.12 2.6-1.32 5.13-1.32 7.61-.02 2.05 1.09 3.33 2.71 3.83 4.88.34 1.45.39 2.83.13 4.15l.04.02c.84-1.05 1.96-1.91 3.37-2.59 2.39-1.17 4.74-1.15 7.04.06 2.67 1.41 4.22 3.51 4.65 6.3.38 2.51-.15 5.14-1.61 7.89s-3.35 4.9-5.69 6.45c-.07-.04-1.84-1.07-5.3-3.09l.25-.48c1.01.19 1.88.12 2.62-.19 1.55-.67 2.88-2.04 3.98-4.12.92-1.73 1.17-3.39.77-4.96-.34-1.38-1.22-2.45-2.63-3.2-1.34-.71-2.69-.79-4.05-.24-1.07.41-2.07 1.22-2.99 2.41-.64.8-1.43 2.08-2.36 3.83l-3.35-1.73zM1148.1 583.77c.32-1.37 1.07-2.42 2.26-3.14 1.19-.73 2.44-.93 3.75-.63 1.43.33 2.52 1.1 3.26 2.29.74 1.19.94 2.5.61 3.94-.32 1.37-1.06 2.44-2.23 3.2s-2.43.99-3.8.67c-1.4-.33-2.48-1.1-3.23-2.33s-.96-2.54-.63-3.94l.01-.06z" class="st1"/></g></g></switch></svg>