<svg xmlns="http://www.w3.org/2000/svg" version="1.0" viewBox="0 0 450 730"><defs><linearGradient id="a" x1="380.34" x2="321.43" y1="838.08" y2="808.97" gradientUnits="userSpaceOnUse"><stop offset="0" stop-color="#502c0a"/><stop offset="1" stop-color="#090501"/></linearGradient><linearGradient id="b" x1="342.14" x2="268.52" y1="764.26" y2="586.12" gradientUnits="userSpaceOnUse"><stop offset="0" stop-color="#134813"/><stop offset="1"/></linearGradient><linearGradient id="c" x1="354.94" x2="260.64" y1="605.65" y2="373.02" gradientUnits="userSpaceOnUse"><stop offset="0" stop-color="#124712"/><stop offset="1"/></linearGradient><linearGradient id="d" x1="350.99" x2="281.83" y1="477.7" y2="297.47" gradientUnits="userSpaceOnUse"><stop offset="0" stop-color="#134813"/><stop offset="1"/></linearGradient><linearGradient id="e" x1="422.1" x2="293.62" y1="380.46" y2="270.47" gradientUnits="userSpaceOnUse"><stop offset="0" stop-color="#1c6d1c"/><stop offset="1" stop-color="#0b2a0b"/></linearGradient></defs><g fill="#2c2c2c"><path d="M199.01 572.106h45.985c9.948 0 17.95 7.847 17.95 17.58v123.059c0 9.733-8.002 11.466-17.95 11.466H199.01c-9.949 0-17.95-1.733-17.95-11.466V589.687c0-9.734 8.001-17.581 17.95-17.581z"/><path d="M94.19 186.084C82.215 147.21 207.836 2.118 227.389 2.24c20.926.133 122.437 126.81 123.207 176.2-1.166 10.803-33.3-8.745-48.617-10.855-16.202 14.055 86.838 129.01 94.882 154.246 5.838 18.305-62.134 3.638-79.98 12.74 0 20.75 120.418 88.028 127.546 111.745 5.359 17.785-84.133 12.383-84.133 33.124 0 20.75 81.219 69.56 84.133 91.371 2.632 19.68-41.031 33.817-61.541 33.124-113.915-3.863-161.928 1.488-275.614 2.905C84.4 607.125.09 589.269 4.408 570.81c5.39-23.044 93.352-76.44 93.352-97.19s-99.94-10.172-93.352-27.305c9.365-24.359 120.335-96.59 108.514-105.915-14.933-11.793-55.62 22.534-69.866 4.729-16.192-20.231 102.322-136.777 102.322-157.803-2.529-4.505-44.444 8.877-51.187-1.243z"/><path d="M450.555 583.235c-44.007 36.895-60.834 9.275-80.106 17.449-14.547 6.166-32.3 19.171-54.714 21.831-14.995 1.784-29.179-10.314-46.765-11.333-20.51-1.183-32.852 15.196-56.192 13.545-26.213-1.845-36.432-15.237-62.561-15.594-20.677-.275-61.635 15.716-74.32.55-19.802-23.655-66.296-9.183-70.781-31.819-7.503-37.833 218.13-221.808 237.048-221.808 18.908 0 220.722 207.437 208.39 227.18z"/><path d="M440.919 451.758c-33.05 10.06-54.788-1.946-74.07 6.228-14.548 6.166-40.51 23.747-73.83 24.277-30.21.469-60.106-35.57-84.393-18.529-34.122 23.93-93.946 25.409-105.361 6.431-21.395-35.57-94.08-3.812-94.08-26.458 0-38.526 196.267-185.25 215.175-185.25 18.918 0 222.032 165.508 216.559 193.301z"/><path d="M398.088 331.503c-11.728 22.055-52.093-11.15-71.25-3.18-8.315 3.465-34.527 19.212-57.077 20.252-19.033.876-43.945-29.445-70.074-15.237-21.78 11.853-59.44 24.827-75.204 9.121-20.271-20.18-76.266 25.715-76.266-10.345 0-38.535 162-241.631 180.919-241.631s174.436 213.226 168.952 241.02z"/><path d="M352.738 181.253c-9.521 11.353-39.553-17.062-69.241-1.254-31.76 16.898-98.764 12.363-115.434 4.331-23.08-11.119-64.049 13.576-74.954-.06C82.567 147.14 209.635 8.905 228.543 8.905c18.918 0 134.164 152.238 124.195 172.347z"/></g><g stroke="#000" stroke-width="9"><path fill="url(#a)" d="M329.87 734.35h44.19c9.56 0 17.25 7.7 17.25 17.25v120.74c0 9.55-7.69 11.25-17.25 11.25h-44.19c-9.56 0-17.25-1.7-17.25-11.25V751.6c0-9.55 7.69-17.25 17.25-17.25z" transform="translate(-135.48 -160.86)"/><path fill="#134813" d="M93.66 194.74c-11.51-38.14 109.21-180.5 128-180.38 20.11.13 117.66 124.42 118.4 172.88-1.12 10.6-32-8.58-46.72-10.65-15.57 13.79 83.45 126.58 91.18 151.34 5.61 17.96-59.71 3.57-76.86 12.5 0 20.36 115.72 86.37 122.57 109.64 5.15 17.45-80.85 12.15-80.85 32.5 0 20.36 78.05 68.25 80.85 89.65 2.53 19.31-39.43 33.18-59.14 32.5-109.47-3.79-155.61 1.46-264.86 2.85-21.98.28-103-17.24-98.85-35.35 5.18-22.61 89.71-75 89.71-95.36s-96.04-9.98-89.71-26.79c9-23.9 115.64-94.77 104.28-103.92-14.35-11.57-53.45 22.11-67.14 4.64-15.56-19.85 98.33-134.2 98.33-154.83-2.43-4.42-42.71 8.71-49.19-1.22z"/><path fill="url(#b)" d="M571.6 745.27c-42.29 36.2-58.46 9.1-76.98 17.12-13.98 6.05-31.04 18.81-52.58 21.42-14.41 1.75-28.04-10.12-44.94-11.12-19.71-1.16-31.57 14.91-54 13.29-25.19-1.81-35.01-14.95-60.12-15.3-19.87-.27-59.23 15.42-71.42.54-19.03-23.21-63.71-9.01-68.02-31.22-7.21-37.12 209.62-217.63 227.8-217.63 18.17 0 212.11 203.53 200.26 222.9z" transform="translate(-135.48 -160.86)"/><path fill="url(#c)" d="M562.34 616.27c-31.76 9.87-52.65-1.91-71.18 6.11-13.98 6.05-38.93 23.3-70.95 23.82-29.03.46-57.76-34.9-81.1-18.18-32.79 23.48-90.28 24.93-101.25 6.31-20.56-34.9-90.41-3.74-90.41-25.96 0-37.8 188.61-181.76 206.78-181.76 18.18 0 213.37 162.39 208.11 189.66z" transform="translate(-135.48 -160.86)"/><path fill="url(#d)" d="M521.18 498.28c-11.27 21.64-50.06-10.94-68.47-3.12-7.99 3.4-33.18 18.85-54.85 19.87-18.29.86-42.23-28.89-67.34-14.95-20.93 11.63-57.12 24.36-72.27 8.95-19.48-19.8-73.29 25.23-73.29-10.15 0-37.81 155.68-237.08 173.86-237.08s167.63 209.21 162.36 236.48z" transform="translate(-135.48 -160.86)"/><path fill="url(#e)" d="M477.6 350.86c-9.15 11.14-38.01-16.74-66.54-1.23-30.52 16.58-94.91 12.13-110.93 4.25-22.18-10.91-61.55 13.32-72.03-.06-10.13-36.43 111.98-172.06 130.15-172.06 18.18 0 128.93 149.37 119.35 169.1z" transform="translate(-135.48 -160.86)"/></g></svg>